<?xml version="1.0" standalone="no"?>
<!DOCTYPE svg PUBLIC "-//W3C//DTD SVG 20010904//EN"
 "http://www.w3.org/TR/2001/REC-SVG-20010904/DTD/svg10.dtd">
<svg version="1.0" xmlns="http://www.w3.org/2000/svg"
 width="512.000000pt" height="512.000000pt" viewBox="0 0 512.000000 512.000000"
 preserveAspectRatio="xMidYMid meet">

<g transform="translate(0.000000,512.000000) scale(0.100000,-0.100000)"
fill="#000000" stroke="none">
<path d="M388 5099 c-23 -12 -46 -35 -58 -59 -19 -37 -20 -58 -20 -370 0 -312
1 -333 20 -370 23 -45 80 -80 130 -80 50 0 107 35 130 80 16 31 20 59 20 130
l0 90 150 0 150 0 0 -1750 c0 -1735 0 -1751 20 -1790 23 -45 80 -80 130 -80
76 0 150 74 150 150 0 18 4 30 9 28 4 -1 106 -61 225 -133 l216 -130 0 -153
c0 -133 3 -158 20 -192 23 -45 80 -80 130 -80 17 0 49 9 70 20 54 27 80 80 80
160 0 34 4 60 9 58 4 -1 106 -61 225 -133 l216 -130 0 -123 c0 -147 15 -189
80 -222 50 -25 90 -25 140 0 65 33 80 75 80 222 l0 123 216 130 c119 72 221
132 225 133 5 2 9 -24 9 -58 0 -80 26 -133 80 -160 50 -25 90 -25 140 0 68 35
80 72 80 252 l0 153 216 130 c119 72 221 132 225 133 5 2 9 -10 9 -28 0 -76
74 -150 150 -150 50 0 107 35 130 80 20 39 20 55 20 1790 l0 1750 150 0 150 0
0 -90 c0 -71 4 -99 20 -130 23 -45 80 -80 130 -80 50 0 107 35 130 80 19 37
20 58 20 370 0 312 -1 333 -20 370 -23 45 -80 80 -130 80 -50 0 -107 -35 -130
-80 -16 -31 -20 -59 -20 -130 l0 -90 -150 0 -150 0 0 90 c0 112 -20 159 -80
190 -39 20 -56 20 -1570 20 -1514 0 -1531 0 -1570 -20 -60 -31 -80 -78 -80
-190 l0 -90 -150 0 -150 0 0 90 c0 112 -20 159 -80 190 -49 25 -94 25 -142 -1z
m3522 -1972 l0 -1692 -667 -400 c-366 -220 -674 -400 -683 -400 -9 0 -317 180
-683 400 l-667 400 0 1692 0 1693 1350 0 1350 0 0 -1693z"/>
<path d="M1588 4500 c-23 -12 -46 -36 -58 -60 -19 -38 -20 -58 -20 -670 0
-612 1 -632 20 -670 13 -26 34 -47 60 -60 37 -19 58 -20 370 -20 312 0 333 -1
370 -20 45 -23 80 -80 80 -130 0 -76 74 -150 150 -150 76 0 150 74 150 150 0
48 33 103 78 128 39 22 46 22 371 22 313 0 334 1 371 20 26 13 47 34 60 60 19
38 20 58 20 670 0 612 -1 632 -20 670 -13 26 -34 47 -61 60 -39 20 -53 21
-402 18 -401 -4 -405 -4 -515 -74 l-53 -34 -45 31 c-25 17 -71 41 -102 53 -54
20 -76 21 -422 23 -349 3 -367 2 -402 -17z m742 -300 c26 -13 47 -34 60 -60
19 -37 20 -58 20 -441 l0 -401 -22 7 c-13 5 -148 10 -300 12 l-278 5 0 449 0
449 240 0 c222 0 244 -2 280 -20z m980 -429 l0 -450 -272 -4 c-150 -2 -285 -8
-300 -12 l-28 -7 0 403 c1 455 0 449 76 495 38 23 44 24 282 24 l242 0 0 -449z"/>
<path d="M1588 2379 c-43 -22 -78 -81 -78 -129 0 -50 35 -107 80 -130 38 -20
57 -20 970 -20 913 0 932 0 970 20 45 23 80 80 80 130 0 50 -35 107 -80 130
-38 20 -56 20 -972 20 -909 -1 -934 -1 -970 -21z"/>
<path d="M1588 1779 c-43 -22 -78 -81 -78 -129 0 -50 35 -107 80 -130 35 -18
59 -20 220 -20 161 0 185 2 220 20 45 23 80 80 80 130 0 50 -35 107 -80 130
-35 18 -58 20 -222 20 -162 -1 -187 -3 -220 -21z"/>
<path d="M2488 1779 c-43 -22 -78 -81 -78 -129 0 -50 35 -107 80 -130 21 -11
53 -20 70 -20 76 0 150 74 150 150 0 50 -35 107 -80 130 -49 25 -94 25 -142
-1z"/>
<path d="M3088 1779 c-43 -22 -78 -81 -78 -129 0 -50 35 -107 80 -130 35 -18
59 -20 220 -20 161 0 185 2 220 20 45 23 80 80 80 130 0 50 -35 107 -80 130
-35 18 -58 20 -222 20 -162 -1 -187 -3 -220 -21z"/>
</g>
</svg>
