<?xml version="1.0" standalone="no"?>
<!DOCTYPE svg PUBLIC "-//W3C//DTD SVG 20010904//EN"
 "http://www.w3.org/TR/2001/REC-SVG-20010904/DTD/svg10.dtd">
<svg version="1.0" xmlns="http://www.w3.org/2000/svg"
 width="512.000000pt" height="512.000000pt" viewBox="0 0 512.000000 512.000000"
 preserveAspectRatio="xMidYMid meet">

<g transform="translate(0.000000,512.000000) scale(0.100000,-0.100000)"
fill="#000000" stroke="none">
<path d="M311 5104 c-206 -55 -337 -254 -303 -460 56 -335 469 -465 701 -219
119 126 147 301 73 458 -82 176 -285 271 -471 221z m204 -173 c89 -40 152
-149 142 -245 -21 -208 -255 -297 -410 -157 -53 47 -77 101 -77 174 0 100 46
178 132 221 64 32 152 35 213 7z"/>
<path d="M1813 5104 c-50 -18 -112 -75 -138 -129 -18 -36 -20 -65 -23 -277
l-3 -236 -157 -4 c-139 -3 -162 -6 -198 -25 -52 -28 -111 -95 -124 -142 -5
-20 -10 -138 -10 -263 l0 -228 80 0 80 0 0 210 c0 220 7 259 45 274 9 3 77 6
151 6 l134 0 0 -245 0 -245 85 0 85 0 0 245 0 245 410 0 410 0 0 -905 0 -905
85 0 85 0 0 905 0 905 134 0 c74 0 142 -3 151 -6 45 -18 45 -10 45 -934 l0
-870 80 0 80 0 0 893 c0 876 -1 893 -21 937 -25 56 -62 95 -114 123 -35 19
-60 22 -197 25 l-158 4 0 53 c0 38 6 60 21 79 l20 26 533 0 533 0 21 -23 c21
-22 22 -31 22 -245 l0 -222 86 0 85 0 -3 238 c-3 266 -7 282 -81 353 -72 70
-68 70 -678 67 -603 -3 -577 0 -648 -70 -50 -49 -72 -102 -78 -184 l-6 -74
-408 0 -409 0 0 223 c0 221 0 224 23 245 l23 22 1438 0 1437 0 24 -25 25 -24
0 -386 0 -385 80 0 80 0 0 400 c0 442 0 442 -63 509 -18 18 -54 44 -82 57
l-50 24 -1450 -1 c-1256 0 -1456 -3 -1492 -15z"/>
<path d="M680 4121 c-72 -22 -139 -81 -166 -147 -22 -52 -18 -141 10 -199 72
-156 276 -186 399 -60 96 99 83 276 -28 361 -59 45 -152 64 -215 45z m120
-186 c32 -34 30 -83 -5 -112 -68 -59 -162 15 -121 95 18 34 28 40 72 41 20 1
38 -7 54 -24z"/>
<path d="M3825 3935 c-25 -24 -25 -25 -25 -220 0 -195 0 -196 25 -220 20 -21
34 -25 79 -25 l56 0 2 -1532 3 -1533 27 -69 c65 -167 187 -277 355 -321 234
-61 484 75 581 318 16 39 17 162 22 1587 l5 1545 50 3 c61 3 89 16 104 49 7
15 11 95 11 209 0 183 0 185 -25 209 l-24 25 -611 0 -611 0 -24 -25z m1125
-220 l0 -85 -492 2 -493 3 -3 83 -3 82 496 0 495 0 0 -85z m-160 -740 l0 -495
-330 0 -330 0 0 495 0 495 330 0 330 0 0 -495z m-2 -1612 l-3 -948 -26 -55
c-34 -72 -89 -126 -167 -162 -56 -27 -70 -30 -145 -26 -62 2 -94 9 -131 28
-65 33 -124 93 -155 160 l-26 55 -3 948 -2 947 330 0 330 0 -2 -947z"/>
<path d="M4292 1818 l3 -83 83 -3 82 -3 0 86 0 85 -85 0 -86 0 3 -82z"/>
<path d="M4460 1485 l0 -85 80 0 80 0 0 85 0 85 -80 0 -80 0 0 -85z"/>
<path d="M4292 1158 l3 -83 83 -3 82 -3 0 86 0 85 -85 0 -86 0 3 -82z"/>
<path d="M4460 825 l0 -85 80 0 80 0 0 85 0 85 -80 0 -80 0 0 -85z"/>
<path d="M4294 567 c-3 -8 -4 -45 -2 -83 l3 -69 83 -3 82 -3 0 86 0 85 -80 0
c-58 0 -82 -4 -86 -13z"/>
<path d="M1182 3607 c-19 -21 -22 -35 -24 -162 l-3 -140 -45 -3 c-111 -6 -120
-21 -120 -202 l0 -130 -80 0 -80 0 0 -80 0 -80 80 0 80 0 0 -197 0 -198 -476
-873 c-266 -488 -485 -900 -495 -934 -35 -112 -21 -286 32 -390 50 -99 165
-183 282 -208 36 -7 398 -10 1182 -8 1030 3 1134 4 1172 20 38 15 46 15 100 1
94 -26 298 -23 397 5 238 68 421 220 527 437 64 132 83 211 83 355 0 200 -46
338 -167 503 -64 88 -138 153 -242 213 l-85 49 3 280 2 280 83 3 82 3 0 79 0
80 -495 0 -495 0 0 -80 0 -80 80 0 80 0 0 -285 0 -285 -47 -24 c-27 -14 -61
-34 -77 -45 l-30 -20 -253 465 -253 464 0 195 0 195 85 0 85 0 0 80 0 80 -85
0 -85 0 0 140 c0 136 -1 142 -25 165 -20 21 -34 25 -80 25 l-55 0 0 124 c0
128 -8 170 -38 192 -13 10 -83 13 -298 14 -279 0 -281 0 -302 -23z m468 -222
l0 -85 -165 0 -165 0 0 85 0 85 165 0 165 0 0 -85z m168 -327 l-3 -83 -327 -3
-328 -2 0 85 0 85 330 0 331 0 -3 -82z m2 -469 l0 -221 150 -275 c83 -151 150
-276 150 -279 0 -2 -11 -4 -25 -4 -44 0 -92 -27 -159 -89 -99 -92 -133 -93
-230 -4 -82 75 -133 97 -221 97 -89 -1 -130 -18 -203 -87 -111 -106 -144 -105
-257 4 -50 48 -107 79 -145 79 -11 0 -20 5 -20 11 0 6 66 131 147 277 l147
267 4 223 3 222 330 0 329 0 0 -221z m1320 -524 l0 -85 -165 0 -165 0 0 85 0
85 165 0 165 0 0 -85z m0 -408 c0 -191 -6 -179 125 -243 116 -56 237 -177 293
-294 61 -128 62 -122 -7 -142 -47 -14 -74 -31 -130 -83 -66 -60 -74 -65 -117
-65 -42 0 -51 5 -110 59 -91 83 -121 96 -224 96 -101 0 -124 -11 -216 -96 -58
-54 -67 -59 -110 -59 -42 0 -51 5 -107 56 -61 56 -144 104 -181 104 -25 0 -17
33 37 140 62 125 160 221 292 286 66 33 104 57 112 74 9 17 13 75 13 178 l0
152 165 0 165 0 0 -163z m-2204 -68 c84 -78 129 -99 219 -99 90 0 138 22 222
100 58 55 68 60 109 60 41 0 50 -5 110 -61 84 -78 129 -99 219 -99 90 0 138
22 222 101 l65 60 56 -3 57 -3 72 -133 73 -132 -46 -63 c-61 -82 -109 -178
-136 -274 -33 -112 -33 -324 0 -436 42 -146 124 -280 232 -380 l61 -57 -1069
2 -1069 3 -49 30 c-30 19 -60 49 -79 79 -29 48 -30 53 -30 170 l0 121 234 430
c129 237 261 478 293 538 l59 107 55 0 c53 0 56 -2 120 -61z m1501 -839 c79
-72 138 -95 227 -88 77 7 116 26 188 94 99 94 137 94 241 -2 83 -76 140 -99
231 -92 72 6 128 32 176 83 42 45 77 70 109 80 l24 7 -6 -75 c-23 -268 -233
-509 -498 -572 -98 -23 -241 -20 -335 8 -262 76 -440 287 -479 569 -3 27 -4
52 0 58 10 17 55 -8 122 -70z"/>
<path d="M1715 1296 c-164 -78 -194 -285 -58 -407 52 -47 100 -62 178 -57 126
8 215 98 223 224 6 87 -16 141 -78 197 -79 71 -174 86 -265 43z m159 -165 c9
-10 19 -31 22 -49 5 -26 1 -36 -24 -62 -17 -16 -37 -30 -46 -30 -59 0 -103 58
-84 113 18 51 96 67 132 28z"/>
<path d="M910 1155 l0 -85 80 0 80 0 0 85 0 85 -80 0 -80 0 0 -85z"/>
<path d="M1156 975 c-99 -35 -161 -126 -161 -235 1 -77 25 -130 81 -180 51
-44 93 -60 161 -60 140 0 244 102 246 240 1 171 -167 292 -327 235z m144 -183
c37 -47 15 -113 -44 -128 -28 -7 -81 18 -90 41 -18 48 7 103 54 117 27 8 60
-4 80 -30z"/>
<path d="M533 819 c-55 -10 -91 -30 -129 -71 -97 -102 -96 -246 1 -343 155
-155 417 -45 417 175 0 66 -18 113 -61 163 -55 62 -143 92 -228 76z m101 -185
c34 -34 34 -77 1 -109 -50 -51 -135 -18 -135 52 0 74 82 108 134 57z"/>
<path d="M1730 580 l0 -80 -80 0 -80 0 0 -85 0 -85 80 0 80 0 0 85 0 85 85 0
85 0 0 -85 0 -85 80 0 80 0 0 85 0 85 -80 0 -80 0 0 80 0 80 -85 0 -85 0 0
-80z"/>
<path d="M263 3460 c-174 -36 -293 -220 -253 -391 57 -249 358 -343 542 -171
208 195 91 539 -192 565 -30 3 -74 2 -97 -3z m152 -185 c94 -55 104 -197 19
-264 -40 -31 -97 -44 -143 -31 -78 21 -121 76 -121 156 0 130 133 205 245 139z"/>
</g>
</svg>
