<?xml version="1.0" standalone="no"?>
<!DOCTYPE svg PUBLIC "-//W3C//DTD SVG 20010904//EN"
 "http://www.w3.org/TR/2001/REC-SVG-20010904/DTD/svg10.dtd">
<svg version="1.0" xmlns="http://www.w3.org/2000/svg"
 width="512.000000pt" height="512.000000pt" viewBox="0 0 512.000000 512.000000"
 preserveAspectRatio="xMidYMid meet">

<g transform="translate(0.000000,512.000000) scale(0.100000,-0.100000)"
fill="#000000" stroke="none">
<path d="M718 4519 c-17 -9 -18 -111 -18 -1919 l0 -1910 -148 0 c-102 0 -152
-4 -160 -12 -15 -15 -15 -61 0 -76 17 -17 4319 -17 4336 0 15 15 15 61 0 76
-8 8 -58 12 -160 12 l-148 0 0 1910 c0 1877 0 1909 -19 1920 -11 5 -74 10
-140 10 -95 0 -123 -3 -135 -16 -14 -13 -16 -47 -16 -215 l0 -199 -1175 0
-1175 0 0 23 c0 80 -62 166 -135 186 -22 6 -85 11 -141 11 -87 0 -107 -3 -150
-25 -61 -31 -95 -79 -102 -145 l-5 -50 -108 0 -109 0 0 199 c0 168 -2 202 -16
215 -12 13 -40 16 -137 16 -67 0 -130 -5 -139 -11z m192 -1959 l0 -1870 -55 0
-55 0 0 1870 0 1870 55 0 55 0 0 -1870z m3410 0 l0 -1870 -55 0 -55 0 0 1870
0 1870 55 0 55 0 0 -1870z m-2689 1634 c12 -12 21 -36 22 -55 l2 -34 -162 -3
-163 -2 0 31 c0 21 10 40 30 61 l30 30 110 -4 c96 -3 112 -6 131 -24z m449
-674 l0 -480 -535 0 -535 0 0 480 0 480 535 0 535 0 0 -480z m2030 0 l0 -480
-965 0 -965 0 0 480 0 480 965 0 965 0 0 -480z m-1175 -960 l0 -375 -587 -2
-588 -3 0 23 c0 80 -62 166 -135 186 -22 6 -85 11 -141 11 -87 0 -107 -3 -150
-25 -61 -31 -95 -79 -102 -145 l-5 -50 -108 0 -109 0 0 380 0 380 963 -2 962
-3 0 -375z m855 320 l0 -60 -375 0 -375 0 0 60 0 60 375 0 375 0 0 -60z m320
-320 l0 -380 -110 0 -110 0 0 380 0 380 110 0 110 0 0 -380z m-320 105 l0 -55
-375 0 -375 0 0 55 0 55 375 0 375 0 0 -55z m0 -210 l0 -55 -375 0 -375 0 0
55 0 55 375 0 375 0 0 -55z m-2159 -181 c12 -12 21 -36 22 -55 l2 -34 -162 -3
-163 -2 0 31 c0 21 10 40 30 61 l30 30 110 -4 c96 -3 112 -6 131 -24z m2159
-34 l0 -60 -375 0 -375 0 0 60 0 60 375 0 375 0 0 -60z m-1710 -640 l0 -480
-535 0 -535 0 0 480 0 480 535 0 535 0 0 -480z m2030 0 l0 -480 -965 0 -965 0
0 480 0 480 965 0 965 0 0 -480z m0 -745 l0 -165 -1550 0 -1550 0 0 165 0 165
1550 0 1550 0 0 -165z"/>
</g>
</svg>
