<?xml version="1.0" standalone="no"?>
<!DOCTYPE svg PUBLIC "-//W3C//DTD SVG 20010904//EN"
 "http://www.w3.org/TR/2001/REC-SVG-20010904/DTD/svg10.dtd">
<svg version="1.0" xmlns="http://www.w3.org/2000/svg"
 width="512.000000pt" height="512.000000pt" viewBox="0 0 512.000000 512.000000"
 preserveAspectRatio="xMidYMid meet">

<g transform="translate(0.000000,512.000000) scale(0.100000,-0.100000)"
fill="#000000" stroke="none">
<path d="M3110 4620 c-38 -38 -36 -62 21 -167 l52 -99 -143 -211 c-162 -238
-166 -250 -108 -310 95 -100 320 -276 488 -383 130 -83 388 -210 426 -210 42
0 58 20 213 253 113 170 127 187 152 187 16 0 29 -2 29 -5 0 -3 -20 -36 -45
-73 -52 -77 -58 -117 -22 -150 26 -24 74 -29 99 -9 9 6 54 69 102 140 57 84
86 137 86 155 0 28 -393 736 -430 775 -14 15 -91 28 -436 72 -230 30 -429 55
-441 55 -13 0 -32 -9 -43 -20z m480 -195 c151 -19 289 -37 307 -40 29 -5 41
-23 182 -272 83 -146 150 -268 148 -269 -4 -4 -609 74 -612 78 -1 2 -62 109
-135 238 -73 129 -141 250 -152 268 -11 17 -18 32 -16 32 2 0 127 -16 278 -35z
m-65 -648 c15 -8 418 -66 468 -67 13 0 -5 -33 -74 -137 -50 -76 -95 -142 -99
-146 -10 -11 -163 66 -299 150 -123 76 -301 208 -384 284 l-58 54 96 144 97
144 118 -208 c65 -114 126 -212 135 -218z"/>
<path d="M2350 3791 c-30 -15 -397 -205 -815 -421 -418 -216 -776 -405 -795
-419 -104 -80 -106 -245 -5 -329 42 -34 121 -58 160 -48 l25 6 0 -805 0 -805
-70 0 c-116 0 -124 -17 -118 -275 l3 -167 28 -24 28 -24 1635 0 1635 0 24 25
c25 24 25 25 25 220 0 195 0 196 -25 220 -21 22 -33 25 -95 25 l-70 0 0 803 0
802 58 1 c199 1 284 258 126 377 -43 32 -1661 867 -1680 867 -11 0 -44 -13
-74 -29z m867 -553 c474 -246 798 -419 805 -431 14 -26 -4 -65 -34 -72 -18 -5
-208 90 -777 385 -414 214 -763 393 -776 396 -18 5 -203 -87 -788 -390 -420
-218 -770 -396 -777 -396 -41 0 -65 65 -34 91 13 11 1567 824 1583 828 2 1
361 -184 798 -411z m51 -328 l492 -255 0 -842 0 -843 -65 0 -65 0 -2 741 -3
741 -28 24 c-27 23 -34 24 -182 24 -84 0 -161 -3 -170 -6 -29 -12 -45 -60 -45
-139 l0 -75 -329 0 -329 0 -17 53 c-49 151 -177 261 -336 286 -91 15 -318 14
-349 -2 -72 -37 -62 -128 38 -330 2 -4 -29 -7 -70 -5 l-73 3 -5 163 c-4 147
-7 165 -24 178 -15 11 -59 14 -187 14 l-168 0 -20 -26 c-21 -27 -21 -32 -21
-835 l0 -809 -115 0 -115 0 2 842 3 843 669 346 669 347 176 -92 c97 -50 398
-206 669 -346z m-1698 -1185 l0 -755 -50 0 -50 0 0 755 0 755 50 0 50 0 0
-755z m609 734 c64 -14 126 -55 162 -109 48 -71 45 -73 -78 -68 -124 6 -169
21 -226 76 -38 36 -67 81 -67 102 0 13 144 13 209 -1z m1289 -801 l-3 -683
-52 -3 -53 -3 0 685 0 686 55 0 55 0 -2 -682z m-268 437 l0 -25 -735 0 -735 0
0 25 0 25 735 0 735 0 0 -25z m0 -405 l0 -220 -329 0 -329 0 -16 46 c-24 70
-59 125 -114 176 -100 94 -182 118 -402 118 -169 0 -191 -6 -211 -57 -15 -39
6 -140 45 -215 l34 -68 -74 0 -74 0 0 213 c0 118 3 217 7 220 3 4 334 7 735 7
l728 0 0 -220z m-950 -76 c50 -28 120 -107 120 -135 0 -5 -48 -9 -107 -9 -92
0 -115 4 -158 24 -64 29 -135 110 -135 153 0 3 51 4 113 2 103 -4 116 -7 167
-35z m950 -334 l0 -30 -730 0 c-640 0 -731 2 -736 15 -4 8 -4 22 0 30 5 13 96
15 736 15 l730 0 0 -30z m0 -250 l0 -60 -732 2 -733 3 -3 58 -3 57 736 0 735
0 0 -60z m750 -305 l0 -85 -1530 0 -1530 0 0 85 0 85 1530 0 1530 0 0 -85z"/>
</g>
</svg>
