<?xml version="1.0" standalone="no"?>
<!DOCTYPE svg PUBLIC "-//W3C//DTD SVG 20010904//EN"
 "http://www.w3.org/TR/2001/REC-SVG-20010904/DTD/svg10.dtd">
<svg version="1.0" xmlns="http://www.w3.org/2000/svg"
 width="512.000000pt" height="512.000000pt" viewBox="0 0 512.000000 512.000000"
 preserveAspectRatio="xMidYMid meet">

<g transform="translate(0.000000,512.000000) scale(0.100000,-0.100000)"
fill="#000000" stroke="none">
<path d="M185 4935 c-25 -24 -25 -26 -25 -215 0 -189 0 -191 25 -215 20 -21
34 -25 80 -25 l55 0 0 -760 0 -760 80 0 80 0 0 120 0 120 1000 0 1000 0 0
-560 0 -560 -120 0 -120 0 0 295 0 296 -25 25 -25 25 -535 -3 -535 -3 0 138
c0 133 -1 139 -25 162 -24 25 -26 25 -215 25 -189 0 -191 0 -215 -25 l-25 -24
0 -456 0 -455 -80 0 -80 0 0 355 0 355 -80 0 -80 0 0 -355 0 -355 -55 0 c-46
0 -60 -4 -80 -25 -25 -24 -25 -26 -25 -215 0 -189 0 -191 25 -215 20 -21 34
-25 80 -25 l55 0 0 -695 0 -696 25 -24 c24 -25 26 -25 215 -25 255 0 240 -14
240 225 l0 175 960 0 960 0 0 -175 c0 -239 -15 -225 240 -225 189 0 191 0 215
25 l25 24 0 696 0 695 55 0 c46 0 60 4 80 25 24 23 25 29 25 160 l0 135 560 0
560 0 0 -240 0 -240 -376 0 c-267 0 -389 -4 -418 -12 -55 -16 -138 -99 -154
-154 -7 -23 -12 -92 -12 -153 0 -105 1 -113 25 -136 18 -19 35 -25 70 -25 25
0 45 -4 45 -8 0 -4 -31 -165 -70 -357 -38 -192 -70 -357 -70 -368 0 -10 11
-29 25 -42 24 -25 26 -25 213 -25 238 0 225 -8 258 155 13 66 26 130 29 142 5
23 7 23 195 23 188 0 190 0 195 -23 3 -12 16 -76 29 -142 33 -163 20 -155 258
-155 187 0 189 0 213 25 14 13 25 32 25 42 0 11 -32 176 -70 368 -39 192 -70
353 -70 357 0 4 20 8 45 8 35 0 52 6 70 25 l25 24 0 336 0 335 -80 0 -80 0 0
-280 0 -280 -560 0 -560 0 0 55 c0 46 4 60 25 80 l24 25 431 0 431 0 24 25 25
24 0 511 0 511 25 24 c20 21 34 25 80 25 l55 0 0 -280 0 -280 80 0 80 0 0 335
0 336 -25 24 c-20 21 -34 25 -80 25 l-55 0 0 960 0 960 55 0 c46 0 60 4 80 25
25 24 25 26 25 215 0 189 0 191 -25 215 l-24 25 -2351 0 -2351 0 -24 -25z
m4615 -215 l0 -80 -2240 0 -2240 0 0 80 0 80 2240 0 2240 0 0 -80z m-2320
-800 l0 -560 -77 0 -78 0 31 19 c48 29 49 55 5 178 -74 204 -293 788 -308 820
-28 60 -55 60 -220 -2 l-146 -55 -499 0 -499 0 -24 -25 -25 -24 0 -456 0 -455
-80 0 -80 0 0 560 0 560 1000 0 1000 0 0 -560z m2160 0 l0 -560 -200 0 -200 0
0 80 c0 65 3 80 15 80 9 0 27 11 40 25 25 24 25 26 25 215 0 189 0 191 -25
215 -13 14 -31 25 -40 25 -13 0 -15 20 -15 135 0 131 -1 137 -25 160 l-24 25
-514 0 c-578 0 -570 1 -644 -72 -95 -93 -97 -227 -6 -328 l43 -48 -15 -36
c-19 -45 -19 -107 0 -153 l15 -36 -43 -46 c-51 -55 -72 -118 -64 -191 l6 -50
-164 0 -165 0 0 560 0 560 1000 0 1000 0 0 -560z m-2567 -47 c76 -203 137
-371 137 -375 0 -7 -139 -62 -145 -57 -5 5 -275 732 -275 740 0 7 115 56 136
58 6 1 72 -164 147 -366z m-1113 -113 l0 -400 -80 0 -80 0 0 400 0 400 80 0
80 0 0 -400z m320 0 l0 -400 -80 0 -80 0 0 400 0 400 80 0 80 0 0 -400z m320
0 l0 -400 -80 0 -80 0 0 400 0 400 80 0 80 0 0 -400z m2480 320 l0 -80 -455 0
-456 0 -24 25 c-16 15 -25 36 -25 55 0 19 9 40 25 55 l24 25 456 0 455 0 0
-80z m80 -320 l0 -80 -455 0 -456 0 -24 25 c-16 15 -25 36 -25 55 0 19 9 40
25 55 l24 25 456 0 455 0 0 -80z m-2316 -189 c42 -112 76 -205 76 -207 0 -2
-36 -4 -80 -4 l-80 0 0 212 c0 116 2 209 4 207 3 -2 39 -96 80 -208z m2236
-131 l0 -80 -455 0 -456 0 -24 25 c-16 15 -25 36 -25 55 0 19 9 40 25 55 l24
25 456 0 455 0 0 -80z m560 -569 l0 -329 -30 -12 c-42 -17 -104 -90 -118 -138
-7 -22 -12 -100 -12 -176 l0 -136 -120 0 -120 0 0 455 0 456 -25 24 c-24 25
-26 25 -215 25 -189 0 -191 0 -215 -25 l-25 -24 0 -456 0 -455 -80 0 -80 0 0
455 0 456 -25 24 -24 25 -351 0 -351 0 -24 -25 -25 -24 0 -456 0 -455 -80 0
-80 0 0 560 0 560 1000 0 1000 0 0 -329z m-3680 -391 l0 -400 -80 0 -80 0 0
400 0 400 80 0 80 0 0 -400z m2160 0 l0 -400 -80 0 -80 0 0 400 0 400 80 0 80
0 0 -400z m320 0 l0 -400 -80 0 -80 0 0 400 0 400 80 0 80 0 0 -400z m640 0
l0 -400 -80 0 -80 0 0 400 0 400 80 0 80 0 0 -400z m-2000 0 l0 -80 -455 0
-456 0 -24 25 c-16 15 -25 36 -25 55 0 19 9 40 25 55 l24 25 456 0 455 0 0
-80z m0 -320 l0 -80 -455 0 -456 0 -24 25 c-16 15 -25 36 -25 55 0 19 9 40 25
55 l24 25 456 0 455 0 0 -80z m1120 -320 l0 -80 -1440 0 -1440 0 0 80 0 80
1440 0 1440 0 0 -80z m-2560 -880 l0 -640 -80 0 -80 0 0 640 0 640 80 0 80 0
0 -640z m2080 360 l0 -280 -960 0 -960 0 0 280 0 280 960 0 960 0 0 -280z
m320 -360 l0 -640 -80 0 -80 0 0 640 0 640 80 0 80 0 0 -640z m938 -22 c-2
-13 -31 -157 -63 -320 l-60 -298 -78 0 c-77 0 -79 1 -75 22 2 13 31 157 63
321 l60 297 78 0 c77 0 79 -1 75 -22z m386 -125 c16 -82 31 -154 34 -160 3
-10 -33 -13 -158 -13 -125 0 -161 3 -158 13 3 6 18 78 34 160 l28 147 96 0 96
0 28 -147z m351 -150 c32 -164 61 -308 63 -320 4 -22 2 -23 -75 -23 l-78 0
-60 298 c-32 163 -61 307 -63 320 -4 21 -2 22 75 22 l78 0 60 -297z m-1995
137 l0 -80 -960 0 -960 0 0 80 0 80 960 0 960 0 0 -80z"/>
</g>
</svg>
