<?xml version="1.0" standalone="no"?>
<!DOCTYPE svg PUBLIC "-//W3C//DTD SVG 20010904//EN"
 "http://www.w3.org/TR/2001/REC-SVG-20010904/DTD/svg10.dtd">
<svg version="1.0" xmlns="http://www.w3.org/2000/svg"
 width="512.000000pt" height="512.000000pt" viewBox="0 0 512.000000 512.000000"
 preserveAspectRatio="xMidYMid meet">

<g transform="translate(0.000000,512.000000) scale(0.100000,-0.100000)"
fill="#000000" stroke="none">
<path d="M2114 5096 c-59 -27 -116 -90 -132 -145 -13 -41 -18 -745 -6 -776 7
-18 55 -45 79 -45 9 0 30 13 46 29 l29 29 0 357 0 357 29 29 29 29 917 0 c973
0 961 1 979 -45 3 -9 6 -266 6 -571 l0 -555 -25 -24 -24 -25 -626 0 -626 0
-24 -25 c-33 -32 -34 -83 -2 -113 l24 -22 650 2 650 3 49 30 c30 19 60 49 79
79 l30 49 3 591 c3 663 5 641 -69 715 -75 75 -21 71 -1073 71 l-941 0 -51 -24z"/>
<path d="M1325 4858 c-125 -17 -263 -116 -314 -225 l-24 -52 -396 -3 c-391 -3
-397 -3 -443 -26 -53 -26 -92 -68 -119 -127 -18 -38 -19 -103 -19 -1335 0
-1235 1 -1297 19 -1335 23 -51 98 -118 149 -133 29 -9 237 -12 761 -12 l721 0
0 -230 0 -230 -115 0 c-135 0 -177 -13 -192 -57 -14 -39 7 -90 42 -103 16 -6
232 -10 561 -10 450 0 539 2 563 15 31 16 41 33 41 71 0 67 -42 84 -202 84
l-108 0 0 230 0 230 518 0 517 0 66 -62 c116 -111 246 -172 397 -187 204 -20
391 44 537 184 127 123 195 271 203 446 6 133 -14 228 -68 337 -99 196 -258
315 -492 366 l-28 6 0 346 0 345 -25 24 c-34 35 -86 34 -114 -1 -20 -26 -21
-38 -21 -370 l0 -344 -27 -6 c-174 -38 -316 -118 -407 -228 l-37 -46 -1550 0
-1549 0 0 970 0 971 25 24 24 25 370 0 c344 0 370 -1 374 -17 3 -10 11 -42 17
-70 22 -96 116 -215 207 -261 178 -91 379 -58 514 85 157 166 155 424 -5 587
-97 100 -228 144 -371 124z m170 -177 c168 -76 215 -285 92 -418 -76 -83 -166
-109 -271 -79 -112 33 -188 134 -188 250 0 154 110 266 261 266 42 0 81 -7
106 -19z m2444 -2156 c387 -92 522 -581 237 -860 -229 -224 -605 -185 -782 81
-80 120 -106 289 -66 421 82 268 343 421 611 358z m-759 -272 c-1 -5 -7 -35
-15 -68 -26 -105 -16 -294 20 -387 7 -17 -68 -18 -1483 -18 l-1491 0 -20 26
c-20 25 -21 39 -21 240 l0 214 1505 0 c828 0 1505 -3 1505 -7z m-1090 -873 l0
-230 -135 0 -135 0 0 230 0 230 135 0 135 0 0 -230z"/>
<path d="M1789 2071 c-36 -36 -37 -73 -4 -106 23 -24 29 -25 164 -25 77 0 147
3 156 6 24 10 46 60 39 89 -3 14 -18 34 -31 45 -23 18 -41 20 -160 20 l-135 0
-29 -29z"/>
<path d="M2882 4717 c-27 -29 -28 -77 -3 -108 l19 -24 387 0 387 0 19 24 c26
32 25 82 -4 109 -23 22 -27 22 -403 22 l-381 0 -21 -23z"/>
<path d="M2649 4505 c-21 -11 -35 -39 -69 -132 -24 -65 -55 -149 -70 -188
l-26 -70 -86 3 c-119 5 -152 -11 -286 -142 l-108 -105 -479 -3 c-469 -4 -481
-4 -540 -26 -127 -48 -239 -156 -283 -275 -29 -77 -125 -639 -119 -700 5 -55
43 -109 98 -142 32 -19 55 -20 509 -23 341 -2 486 0 515 8 50 15 84 42 112 88
22 36 23 46 23 285 l0 247 120 0 c235 0 287 25 501 239 125 125 158 164 167
197 16 56 15 133 -2 183 -15 40 -15 41 65 257 43 119 79 222 79 230 0 26 -23
62 -47 73 -31 14 -42 13 -74 -4z m-226 -556 c48 -22 72 -98 44 -145 -23 -39
-263 -262 -308 -285 -41 -22 -58 -24 -224 -27 -99 -1 -190 -5 -202 -7 -48 -11
-53 -42 -53 -338 0 -241 -2 -276 -16 -281 -9 -3 -139 -6 -290 -6 -239 0 -274
2 -274 15 0 9 16 108 35 220 29 168 34 209 24 227 -28 52 -81 63 -124 26 -23
-21 -28 -42 -60 -233 -20 -115 -38 -220 -40 -232 -5 -22 -10 -23 -89 -23 -59
0 -87 4 -95 14 -18 22 80 593 114 663 31 62 79 107 155 142 l55 26 497 3 498
3 117 113 c65 62 127 118 138 124 26 15 67 15 98 1z"/>
<path d="M3034 4418 c-47 -22 -56 -86 -19 -123 l24 -25 314 0 314 0 21 23 c30
32 29 81 -3 112 l-24 25 -303 -1 c-187 0 -311 -4 -324 -11z"/>
<path d="M3205 4109 c-37 -11 -55 -34 -55 -70 0 -82 23 -89 280 -89 255 0 280
8 280 86 0 40 -18 62 -58 74 -45 12 -405 12 -447 -1z"/>
<path d="M3710 1138 c-256 -16 -524 -116 -730 -272 -169 -127 -341 -331 -419
-496 -72 -151 -14 -306 132 -356 36 -12 203 -14 1142 -12 l1100 3 41 22 c90
48 141 143 132 243 -9 95 -130 289 -271 437 -121 126 -235 209 -392 288 -239
119 -457 161 -735 143z m316 -173 c108 -17 247 -61 336 -106 229 -115 431
-307 548 -520 46 -86 49 -108 16 -146 l-24 -28 -1064 -3 c-584 -1 -1073 0
-1086 3 -61 15 -78 75 -41 148 167 327 517 584 885 651 105 19 317 19 430 1z"/>
</g>
</svg>
