<?xml version="1.0" standalone="no"?>
<!DOCTYPE svg PUBLIC "-//W3C//DTD SVG 20010904//EN"
 "http://www.w3.org/TR/2001/REC-SVG-20010904/DTD/svg10.dtd">
<svg version="1.0" xmlns="http://www.w3.org/2000/svg"
 width="512.000000pt" height="512.000000pt" viewBox="0 0 512.000000 512.000000"
 preserveAspectRatio="xMidYMid meet">

<g transform="translate(0.000000,512.000000) scale(0.100000,-0.100000)"
fill="#000000" stroke="none">
<path d="M409 5105 c-154 -38 -289 -145 -354 -282 -58 -120 -55 4 -55 -2261 0
-1850 2 -2091 16 -2150 46 -201 197 -351 399 -397 63 -14 287 -15 2175 -13
l2105 3 64 23 c131 47 234 136 296 253 68 130 65 39 65 1654 0 1619 4 1521
-67 1659 -33 65 -92 127 -712 747 l-676 676 -85 41 c-47 22 -109 45 -138 51
-37 8 -502 11 -1515 10 -1196 -1 -1472 -3 -1518 -14z m3003 -727 c4 -579 2
-556 64 -683 38 -79 140 -181 219 -219 127 -62 104 -60 683 -64 l532 -3 0
-1031 c0 -567 -3 -1028 -7 -1024 -5 4 -253 368 -553 809 -502 737 -548 802
-583 816 -76 29 -73 33 -429 -503 -178 -267 -326 -486 -329 -486 -3 0 -340
442 -750 982 -409 540 -761 1003 -781 1029 -42 53 -82 68 -128 49 -21 -9 -180
-213 -582 -749 l-553 -736 -3 205 c-1 113 -1 583 0 1045 l3 840 27 57 c43 91
131 165 225 187 21 5 684 9 1490 10 l1452 1 3 -532z m1236 -746 c-57 -2 -258
-2 -448 0 l-345 3 -53 29 c-60 34 -111 85 -144 148 -23 43 -23 46 -26 493 l-3
450 561 -560 560 -560 -102 -3z m-3038 -157 l200 -270 -209 -3 c-116 -1 -306
-1 -423 0 l-214 3 209 283 c177 239 212 281 224 270 7 -8 103 -135 213 -283z
m382 -502 c13 -15 1097 -1469 1350 -1810 l68 -93 -1600 0 -1600 0 0 563 1 562
301 398 301 397 582 0 c542 0 583 -1 597 -17z m1858 -454 c61 -89 109 -163
107 -166 -2 -2 -105 -2 -229 -1 l-224 3 110 162 c61 89 114 162 118 163 4 0
57 -73 118 -161z m504 -734 c127 -187 289 -424 359 -527 l128 -188 -578 1
-578 0 -270 355 c-148 195 -270 360 -270 367 0 6 50 85 110 174 l110 162 379
-2 379 -2 231 -340z m554 -1127 c-3 -183 -4 -196 -29 -248 -34 -72 -97 -136
-167 -168 l-57 -27 -2095 0 -2095 0 -55 26 c-72 34 -136 97 -168 167 -26 54
-27 66 -30 250 l-4 192 2352 0 2352 0 -4 -192z"/>
<path d="M2335 4676 c-88 -28 -159 -76 -211 -145 -34 -44 -36 -45 -99 -47
-118 -4 -231 -79 -286 -189 -34 -70 -35 -198 -1 -267 31 -62 89 -121 154 -155
l53 -28 505 0 505 0 56 28 c66 32 132 99 162 165 16 35 22 67 22 122 0 94 -32
166 -105 234 -68 64 -127 89 -212 90 -38 0 -68 3 -68 7 0 15 -65 86 -111 121
-92 69 -257 98 -364 64z m190 -207 c55 -15 119 -82 135 -139 6 -25 15 -52 19
-59 30 -58 134 -72 175 -24 23 26 24 26 62 12 29 -10 44 -25 58 -53 17 -36 18
-43 5 -80 -26 -77 -22 -76 -524 -76 -399 0 -443 2 -475 18 -44 22 -62 56 -56
105 9 80 74 111 157 76 34 -15 59 -19 83 -15 46 9 96 56 96 91 0 109 132 181
265 144z"/>
<path d="M473 1900 c-18 -11 -35 -30 -38 -43 -4 -13 -5 -96 -3 -183 3 -142 5
-164 26 -206 31 -62 89 -121 154 -155 l53 -28 369 -3 c389 -3 412 -1 441 42 8
11 15 40 15 64 0 35 -6 49 -29 73 l-29 29 -349 0 c-461 0 -443 -9 -443 217 0
145 -8 176 -51 199 -38 19 -78 18 -116 -6z"/>
<path d="M1739 1461 c-49 -50 -36 -133 26 -166 63 -35 140 4 152 78 15 97
-108 158 -178 88z"/>
</g>
</svg>
